<?xml version="1.0" encoding="utf-8"?>
<!-- Generator: Adobe Illustrator 14.0.0, SVG Export Plug-In . SVG Version: 6.00 Build 43363)  -->
<!DOCTYPE svg PUBLIC "-//W3C//DTD SVG 1.1//EN" "http://www.w3.org/Graphics/SVG/1.1/DTD/svg11.dtd">
<svg version="1.1" id="Layer_1" xmlns="http://www.w3.org/2000/svg" xmlns:xlink="http://www.w3.org/1999/xlink" x="0px" y="0px"
	 width="792px" height="612px" viewBox="0 0 792 612" enable-background="new 0 0 792 612" xml:space="preserve">
<g>
	<g>
		<path fill="#4D9DB7" d="M408.488,295.957v-3.732c3.738-0.623,6.754-2.674,9.057-6.162c2.303-3.482,3.455-7.779,3.455-12.885
			v-34.541c0-15.808,6.906-23.713,20.729-23.713h5.225v6.162h-2.992c-7.219,0.873-10.826,7.468-10.826,19.792v27.074
			c0,8.215-1.096,14.221-3.268,18.016c-2.182,3.799-5.947,6.508-11.297,8.123c5.35,1.621,9.086,4.234,11.205,7.844
			c2.242,3.984,3.359,10.082,3.359,18.299v27.072c0,12.324,3.607,18.92,10.826,19.791h2.992v6.164h-5.225
			c-13.822,0-20.729-7.91-20.729-23.715V315c0-5.102-1.152-9.393-3.455-12.881C415.242,298.637,412.227,296.58,408.488,295.957z"/>
		<path fill="#4D9DB7" d="M588.631,292.225v3.732c-3.857,0.623-6.996,2.68-9.426,6.162c-2.424,3.488-3.641,7.779-3.641,12.881
			v34.545c0,15.805-6.975,23.715-20.908,23.715h-5.045v-6.164h2.805c7.338-0.871,11.016-7.467,11.016-19.791v-27.072
			c0-8.217,1.176-14.314,3.549-18.299c2.24-3.609,6.031-6.223,11.389-7.844c-5.357-1.615-9.186-4.324-11.488-8.123
			c-2.303-3.795-3.449-9.801-3.449-18.016v-27.074c0-12.324-3.678-18.918-11.016-19.792h-2.805v-6.162h5.045
			c13.934,0,20.908,7.905,20.908,23.713v34.541c0,5.105,1.217,9.402,3.641,12.885C581.635,289.551,584.773,291.602,588.631,292.225z
			"/>
	</g>
	<g>
		<path fill="#4A1814" d="M104.702,335.258c0.746,0.504,1.741,1.342,2.987,2.523c1.241,1.186,2.176,2.084,2.804,2.709
			c-8.844,10.953-20.604,16.43-35.292,16.43c-13.446,0-24.584-4.506-33.42-13.537c-8.843-9.023-13.258-20.32-13.258-33.889
			c0-13.193,4.821-24.461,14.469-33.795c9.645-9.336,21.315-14.006,35.01-14.006c8.216,0,15.615,2.119,22.218,6.352
			c6.098,3.859,9.147,7.779,9.147,11.76c0,3.242-2.362,5.293-7.095,6.162c-1.369,0.252-2.304,0.377-2.796,0.377
			c-2.492,0-4.11-1.057-4.854-3.176c0-1.99,0.714-3.236,2.141-3.734c1.432-0.498,2.337-0.748,2.713-0.748l1.864,0.188
			c-4.854-5.723-12.572-8.592-23.152-8.592c-10.454,0-18.765,3.488-24.928,10.459c-6.161,6.971-9.243,16.244-9.243,27.82
			c0,11.703,3.083,21.256,9.243,28.66c6.163,7.406,14.163,11.113,23.994,11.113c6.352,0,12.444-1.682,18.298-5.043
			C99.908,340.678,102.956,338,104.702,335.258z"/>
		<g>
			<path fill="#4A1814" d="M207.269,309.307c0,13.324-4.542,24.586-13.63,33.799c-9.088,9.213-20.165,13.814-33.232,13.814
				c-13.075,0-24.122-4.602-33.144-13.814c-9.03-9.213-13.534-20.475-13.534-33.799c0-13.318,4.504-24.58,13.534-33.793
				c9.022-9.213,20.069-13.82,33.144-13.82c13.19,0,24.297,4.607,33.322,13.82C202.756,284.727,207.269,295.988,207.269,309.307z
				 M191.77,309.307c0-11.951-2.796-21.439-8.399-28.471s-13.258-10.555-22.963-10.555c-9.71,0-17.338,3.523-22.876,10.555
				c-5.537,7.031-8.309,16.52-8.309,28.471c0,11.953,2.771,21.445,8.309,28.475c5.538,7.037,13.166,10.553,22.876,10.553
				c9.706,0,17.361-3.516,22.963-10.553C188.973,330.752,191.77,321.26,191.77,309.307z"/>
		</g>
		<g>
			<path fill="#4A1814" d="M290.576,337.873c-2.357,5.105-6.396,9.463-12.104,13.072c-6.336,3.98-13.227,5.975-20.674,5.975
				c-12.051,0-22.199-4.668-30.458-14.002c-8.259-9.338-12.384-20.725-12.384-34.17c0-12.82,4.414-23.867,13.258-33.143
				c8.836-9.27,19.541-13.912,32.113-13.912c12.818,0,22.717,5.854,29.686,17.555v-47.242c0-2.488-1.18-3.734-3.541-3.734
				c-2.492-0.995-3.738-2.052-3.738-3.172c4.727-0.376,11.883-1.181,21.471-2.427v125.286c0,2.615,2.121,3.922,6.352,3.922v2.613
				c-8.295,0.748-14.959,1.365-19.98,1.869V337.873z M290.576,309.307c0-11.82-2.797-21.285-8.404-28.379
				c-5.598-7.098-13.008-10.646-22.215-10.646c-8.844,0-16,3.674-21.477,11.018c-5.48,7.346-8.213,16.684-8.213,28.008
				c0,11.58,2.674,20.977,8.029,28.195c5.35,7.221,12.385,10.832,21.098,10.832c9.209,0,16.715-3.672,22.496-11.02
				C287.682,329.973,290.576,320.637,290.576,309.307z"/>
		</g>
		<g>
			<path fill="#4A1814" d="M396.326,340.301c-8.844,11.082-21.047,16.619-36.6,16.619c-12.574,0-23.186-4.602-31.84-13.814
				s-12.977-20.475-12.977-33.799c0-13.564,4.262-24.893,12.795-33.98c8.523-9.086,19.199-13.633,32.021-13.633
				c10.326,0,19.1,3.301,26.326,9.9c6.846,6.223,10.887,14.127,12.133,23.711l-67.215,22.967c1.496,7.721,4.172,14.002,8.031,18.855
				c5.971,7.471,13.752,11.207,23.338,11.207c11.824,0,22.406-5.355,31.744-16.061c0.373,0.875,0.746,2.211,1.117,4.016
				C395.572,338.092,395.945,339.434,396.326,340.301z M330.227,310.242c11.078-4.232,27.691-10.645,49.846-19.234
				c-2.24-13.814-9.084-20.727-20.533-20.727c-9.338,0-16.557,3.303-21.662,9.9s-7.65,15.746-7.65,27.445V310.242z"/>
		</g>
		<g>
			<path fill="#4A1814" d="M517.998,310.428v-88.13h-2.803h-2.803l-61.246,93.72v4.121h51.906v28.566c0,2.613-1.988,3.92-5.971,3.92
				h-3.549v3.361h33.986v-3.361h-3.551c-3.979,0-5.971-1.307-5.971-3.92v-1.867v-26.699h19.973c0.375-2.861,0.563-4.42,0.563-4.67
				l0.373-5.041H517.998z M503.053,310.428h-39.391l39.391-61.244V310.428z"/>
		</g>
		<path fill="#4A1814" d="M616.268,232.006v116.141c0,2.738,1.49,4.105,4.475,4.105h2.621v3.176h-28.479v-3.176h2.621
			c2.986,0,4.475-1.367,4.475-4.105V232.006c0-2.488-1.184-3.734-3.547-3.734c-2.363-0.995-3.549-1.8-3.549-2.427V225.1
			c4.734-0.376,11.828-1.181,21.287-2.427v123.604"/>
		<g>
			<circle fill="#4A1814" cx="642.595" cy="233.316" r="8.706"/>
			<path fill="#4A1814" d="M651.277,272.338v75.996c0,2.611,1.488,3.918,4.477,3.918h2.619v3.176h-28.477v-3.176h2.619
				c2.984,0,4.475-1.307,4.475-3.918v-75.996c0-2.488-1.186-3.734-3.547-3.734c-2.365-0.996-3.547-2.117-3.547-3.361
				c4.73-0.494,11.828-1.43,21.287-2.801v83.836"/>
		</g>
		<path fill="#4A1814" d="M749.738,274.859c-8.152-8.773-18.705-13.166-31.645-13.166c-13.449,0-24.215,6.162-32.305,18.488v-57.508
			c-9.215,1.246-16.121,2.051-20.727,2.427c0,1.12,1.117,2.177,3.359,3.172c2.119,0,3.176,1.246,3.176,3.734v67.033
			c0,0.266,0.006,0.635,0.012,0.943v48.352c0,2.611-1.49,3.918-4.475,3.918h-2.623v3.176h21.049v-11.502
			c1.203,1.189,2.484,2.357,3.961,3.473c8.34,6.473,17.053,9.707,26.141,9.707c12.816,0,23.742-4.691,32.77-14.096
			c9.025-9.4,13.537-20.816,13.537-34.262C761.969,294.934,757.889,283.635,749.738,274.859z M738.721,337.873
			c-5.539,7.098-12.977,10.646-22.314,10.646c-9.457,0-16.896-3.018-22.305-9.059c-5.418-6.037-8.131-14.529-8.131-25.484v-3.549
			c0-11.574,2.957-21.16,8.873-28.754c5.912-7.594,13.35-11.393,22.316-11.393c8.836,0,16.021,3.709,21.561,11.111
			c5.537,7.408,8.313,16.898,8.313,28.475C747.033,321.445,744.258,330.781,738.721,337.873z"/>
	</g>
</g>
</svg>
