<?xml version="1.0" encoding="utf-8"?>
<!-- Generator: Adobe Illustrator 14.0.0, SVG Export Plug-In . SVG Version: 6.00 Build 43363)  -->
<!DOCTYPE svg PUBLIC "-//W3C//DTD SVG 1.1//EN" "http://www.w3.org/Graphics/SVG/1.1/DTD/svg11.dtd">
<svg version="1.1" id="Layer_1" xmlns="http://www.w3.org/2000/svg" xmlns:xlink="http://www.w3.org/1999/xlink" x="0px" y="0px"
	 width="792px" height="612px" viewBox="0 0 792 612" enable-background="new 0 0 792 612" xml:space="preserve">
<g>
	<g>
		<path fill="#666666" d="M407.018,243.67v-3.733c3.738-0.623,6.754-2.674,9.057-6.161c2.303-3.483,3.455-7.78,3.455-12.886v-34.541
			c0-15.808,6.906-23.713,20.729-23.713h5.225v6.162h-2.992c-7.219,0.873-10.826,7.468-10.826,19.791v27.074
			c0,8.216-1.096,14.222-3.268,18.017c-2.182,3.799-5.947,6.507-11.297,8.122c5.35,1.622,9.086,4.235,11.205,7.845
			c2.242,3.984,3.359,10.082,3.359,18.298v27.073c0,12.324,3.607,18.919,10.826,19.791h2.992v6.164h-5.225
			c-13.822,0-20.729-7.91-20.729-23.715v-34.544c0-5.103-1.152-9.394-3.455-12.881C413.771,246.349,410.756,244.293,407.018,243.67z
			"/>
		<path fill="#666666" d="M587.16,239.937v3.733c-3.857,0.623-6.996,2.679-9.426,6.162c-2.424,3.487-3.641,7.778-3.641,12.881
			v34.544c0,15.805-6.975,23.715-20.908,23.715h-5.045v-6.164h2.805c7.338-0.871,11.016-7.467,11.016-19.791v-27.073
			c0-8.216,1.176-14.313,3.549-18.298c2.24-3.609,6.031-6.223,11.389-7.845c-5.357-1.615-9.186-4.323-11.488-8.122
			c-2.303-3.795-3.449-9.801-3.449-18.017v-27.074c0-12.323-3.678-18.918-11.016-19.791h-2.805v-6.162h5.045
			c13.934,0,20.908,7.905,20.908,23.713v34.541c0,5.105,1.217,9.402,3.641,12.886C580.164,237.263,583.303,239.314,587.16,239.937z"
			/>
	</g>
	<g>
		<path fill="#B2B2B2" d="M103.231,282.971c0.746,0.503,1.741,1.342,2.987,2.522c1.241,1.186,2.176,2.085,2.804,2.709
			c-8.844,10.954-20.604,16.431-35.292,16.431c-13.446,0-24.584-4.507-33.42-13.537c-8.843-9.024-13.258-20.32-13.258-33.89
			c0-13.193,4.821-24.461,14.469-33.795c9.645-9.336,21.315-14.005,35.01-14.005c8.216,0,15.615,2.119,22.218,6.351
			c6.098,3.86,9.147,7.78,9.147,11.761c0,3.241-2.362,5.293-7.095,6.162c-1.369,0.251-2.304,0.377-2.796,0.377
			c-2.492,0-4.11-1.057-4.854-3.176c0-1.991,0.714-3.237,2.141-3.735c1.432-0.497,2.337-0.748,2.713-0.748l1.864,0.188
			c-4.854-5.723-12.572-8.591-23.152-8.591c-10.454,0-18.765,3.487-24.928,10.458c-6.161,6.971-9.243,16.244-9.243,27.821
			c0,11.703,3.083,21.256,9.243,28.659c6.163,7.407,14.163,11.113,23.994,11.113c6.352,0,12.444-1.682,18.298-5.043
			C98.437,288.39,101.485,285.712,103.231,282.971z"/>
		<g>
			<path fill="#B2B2B2" d="M205.798,257.02c0,13.324-4.542,24.585-13.63,33.798c-9.088,9.213-20.165,13.815-33.232,13.815
				c-13.075,0-24.122-4.603-33.144-13.815c-9.03-9.213-13.534-20.474-13.534-33.798c0-13.318,4.504-24.581,13.534-33.794
				c9.022-9.212,20.069-13.819,33.144-13.819c13.19,0,24.297,4.607,33.322,13.819C201.286,232.439,205.798,243.702,205.798,257.02z
				 M190.299,257.02c0-11.951-2.796-21.44-8.399-28.472s-13.258-10.554-22.963-10.554c-9.71,0-17.338,3.522-22.876,10.554
				c-5.537,7.031-8.309,16.521-8.309,28.472c0,11.952,2.771,21.444,8.309,28.474c5.538,7.037,13.166,10.553,22.876,10.553
				c9.706,0,17.361-3.516,22.963-10.553C187.502,278.464,190.299,268.972,190.299,257.02z"/>
		</g>
		<g>
			<path fill="#B2B2B2" d="M289.105,285.586c-2.356,5.105-6.396,9.462-12.103,13.072c-6.336,3.979-13.228,5.975-20.674,5.975
				c-12.051,0-22.2-4.668-30.458-14.002c-8.259-9.338-12.384-20.725-12.384-34.171c0-12.82,4.414-23.867,13.258-33.143
				c8.836-9.27,19.541-13.911,32.113-13.911c12.818,0,22.717,5.854,29.685,17.554v-47.241c0-2.488-1.179-3.734-3.54-3.734
				c-2.492-0.995-3.738-2.052-3.738-3.172c4.726-0.376,11.883-1.181,21.471-2.427v125.285c0,2.615,2.121,3.922,6.352,3.922v2.613
				c-8.296,0.749-14.959,1.366-19.981,1.869V285.586z M289.105,257.02c0-11.821-2.796-21.285-8.403-28.38
				c-5.598-7.097-13.008-10.646-22.215-10.646c-8.844,0-16,3.674-21.477,11.018c-5.48,7.346-8.213,16.684-8.213,28.008
				c0,11.58,2.673,20.977,8.029,28.195c5.349,7.221,12.384,10.831,21.097,10.831c9.21,0,16.716-3.671,22.496-11.02
				C286.211,277.685,289.105,268.349,289.105,257.02z"/>
		</g>
		<g>
			<path fill="#B2B2B2" d="M394.855,288.014c-8.843,11.082-21.046,16.619-36.599,16.619c-12.574,0-23.187-4.603-31.84-13.815
				c-8.654-9.213-12.977-20.474-12.977-33.798c0-13.565,4.262-24.893,12.794-33.98c8.524-9.086,19.2-13.633,32.022-13.633
				c10.326,0,19.1,3.301,26.326,9.899c6.846,6.223,10.886,14.128,12.132,23.711L329.5,265.985
				c1.496,7.721,4.172,14.002,8.031,18.855c5.97,7.47,13.751,11.206,23.338,11.206c11.824,0,22.406-5.354,31.744-16.06
				c0.373,0.874,0.745,2.211,1.116,4.015S394.474,287.147,394.855,288.014z M328.756,257.955
				c11.077-4.231,27.691-10.645,49.846-19.233c-2.24-13.815-9.084-20.727-20.533-20.727c-9.339,0-16.557,3.302-21.662,9.9
				c-5.105,6.598-7.65,15.745-7.65,27.444V257.955z"/>
		</g>
		<g>
			<path fill="#B2B2B2" d="M516.527,258.141V170.01h-2.803h-2.803l-61.246,93.721v4.12h51.906v28.566c0,2.613-1.988,3.92-5.971,3.92
				h-3.549v3.361h33.986v-3.361h-3.551c-3.979,0-5.971-1.307-5.971-3.92v-1.866v-26.7H536.5c0.375-2.861,0.563-4.419,0.563-4.67
				l0.373-5.04H516.527z M501.582,258.141h-39.391l39.391-61.244V258.141z"/>
		</g>
		<path fill="#B2B2B2" d="M614.797,179.719V295.86c0,2.738,1.49,4.105,4.475,4.105h2.621v3.176h-28.479v-3.176h2.621
			c2.986,0,4.475-1.367,4.475-4.105V179.719c0-2.488-1.184-3.734-3.547-3.734c-2.363-0.995-3.549-1.8-3.549-2.427v-0.745
			c4.734-0.376,11.828-1.181,21.287-2.427v123.604"/>
		<g>
			<path fill="#B2B2B2" d="M649.83,181.03c0,4.805-3.9,8.703-8.707,8.703s-8.705-3.898-8.705-8.703c0-4.81,3.898-8.707,8.705-8.707
				S649.83,176.22,649.83,181.03z"/>
			<path fill="#B2B2B2" d="M649.807,220.05v75.996c0,2.612,1.488,3.919,4.477,3.919h2.619v3.176h-28.477v-3.176h2.619
				c2.984,0,4.475-1.307,4.475-3.919V220.05c0-2.487-1.186-3.733-3.547-3.733c-2.365-0.996-3.547-2.117-3.547-3.362
				c4.73-0.494,11.828-1.429,21.287-2.8v83.836"/>
		</g>
		<path fill="#B2B2B2" d="M748.268,222.573c-8.152-8.774-18.705-13.166-31.645-13.166c-13.449,0-24.215,6.161-32.305,18.488v-57.509
			c-9.215,1.246-16.121,2.051-20.727,2.427c0,1.12,1.117,2.177,3.359,3.172c2.119,0,3.176,1.246,3.176,3.734v67.033
			c0,0.266,0.006,0.634,0.012,0.942v48.352c0,2.612-1.49,3.919-4.475,3.919h-2.623v3.176h21.049v-11.502
			c1.203,1.188,2.484,2.356,3.961,3.472c8.34,6.473,17.053,9.708,26.141,9.708c12.816,0,23.742-4.692,32.77-14.097
			c9.025-9.399,13.537-20.815,13.537-34.262C760.498,242.646,756.418,231.348,748.268,222.573z M737.25,285.586
			c-5.539,7.098-12.977,10.646-22.314,10.646c-9.457,0-16.896-3.018-22.305-9.058c-5.418-6.037-8.131-14.529-8.131-25.485v-3.548
			c0-11.575,2.957-21.16,8.873-28.754c5.912-7.594,13.35-11.393,22.316-11.393c8.836,0,16.021,3.709,21.561,11.111
			c5.537,7.408,8.313,16.897,8.313,28.475S742.787,278.494,737.25,285.586z"/>
	</g>
</g>
<g>
	<path fill="#B2B2B2" d="M49,380.675c-2.881,0-5.495-0.495-7.84-1.482c-2.346-0.988-4.346-2.399-6.001-4.233
		c-1.656-1.833-2.929-4.054-3.822-6.662c-0.893-2.607-1.339-5.53-1.339-8.769s0.452-6.162,1.357-8.77
		c0.904-2.607,2.184-4.822,3.84-6.645c1.655-1.821,3.655-3.227,6.001-4.215c2.345-0.987,4.947-1.482,7.805-1.482
		c2.191,0,4.251,0.316,6.18,0.946c1.929,0.632,3.631,1.519,5.108,2.661c1.477,1.144,2.685,2.519,3.626,4.126
		c0.94,1.607,1.506,3.388,1.697,5.341h-5.573c-0.119-1.286-0.47-2.447-1.054-3.483c-0.583-1.035-1.357-1.923-2.322-2.661
		c-0.964-0.737-2.096-1.304-3.394-1.696c-1.298-0.394-2.709-0.59-4.233-0.59c-2.048,0-3.899,0.363-5.554,1.09
		c-1.655,0.727-3.066,1.786-4.233,3.179c-1.167,1.394-2.066,3.114-2.697,5.162c-0.631,2.048-0.947,4.394-0.947,7.037
		c0,2.643,0.309,4.988,0.929,7.036c0.619,2.049,1.506,3.775,2.661,5.18c1.155,1.405,2.554,2.471,4.197,3.197
		s3.488,1.089,5.537,1.089c3.191,0,5.774-0.773,7.751-2.321c1.976-1.548,3.095-3.786,3.357-6.716h5.573
		c-0.191,2.191-0.739,4.139-1.644,5.841c-0.905,1.702-2.084,3.132-3.536,4.286c-1.453,1.155-3.149,2.036-5.09,2.644
		S51.286,380.675,49,380.675z"/>
	<path fill="#B2B2B2" d="M101.766,338.417c2.833,0,5.447,0.507,7.84,1.519c2.394,1.012,4.453,2.441,6.18,4.286
		c1.727,1.846,3.072,4.066,4.037,6.662s1.447,5.478,1.447,8.645s-0.482,6.049-1.447,8.644c-0.964,2.597-2.31,4.822-4.037,6.68
		s-3.786,3.293-6.18,4.305c-2.393,1.012-5.007,1.519-7.84,1.519c-2.858,0-5.483-0.507-7.876-1.519s-4.459-2.447-6.197-4.305
		c-1.739-1.857-3.09-4.083-4.055-6.68c-0.964-2.595-1.446-5.477-1.446-8.644s0.482-6.049,1.446-8.645
		c0.965-2.596,2.316-4.816,4.055-6.662c1.738-1.845,3.804-3.274,6.197-4.286S98.908,338.417,101.766,338.417z M101.73,376.03
		c2.023,0,3.887-0.375,5.59-1.125s3.173-1.833,4.412-3.25c1.238-1.417,2.203-3.144,2.894-5.18c0.69-2.036,1.036-4.352,1.036-6.947
		s-0.345-4.912-1.036-6.948c-0.691-2.036-1.649-3.762-2.875-5.18c-1.227-1.416-2.686-2.494-4.376-3.232
		c-1.691-0.737-3.536-1.107-5.537-1.107c-2.024,0-3.894,0.37-5.608,1.107c-1.715,0.738-3.197,1.811-4.447,3.215
		c-1.25,1.405-2.227,3.132-2.929,5.18c-0.703,2.048-1.054,4.37-1.054,6.966s0.345,4.911,1.036,6.947
		c0.69,2.036,1.655,3.763,2.893,5.18c1.238,1.417,2.708,2.5,4.412,3.25C97.842,375.655,99.706,376.03,101.73,376.03z"/>
	<path fill="#B2B2B2" d="M171.535,379.96h-5.572l-21.396-32.22v32.22h-5.108v-40.828h5.501l21.396,32.22v-32.22h5.179V379.96z"/>
	<path fill="#B2B2B2" d="M219.193,343.954h-22.147v12.645h19.218v4.858h-19.218v18.503h-5.394v-40.828h27.541V343.954z"/>
	<path fill="#B2B2B2" d="M267.923,379.96h-30.434v-40.828h29.505v4.822h-24.111v12.502h22.54v4.822h-22.54v13.823h25.04V379.96z"/>
	<path fill="#B2B2B2" d="M320.546,379.96h-5.858l-3.822-10.895c-0.357-0.952-0.828-1.834-1.411-2.644s-1.262-1.506-2.036-2.09
		c-0.774-0.583-1.631-1.035-2.572-1.357c-0.941-0.321-1.923-0.481-2.947-0.481h-10.002v17.467h-5.394v-40.828h18.075
		c1.571,0,3.006,0.071,4.304,0.214c1.297,0.143,2.447,0.37,3.447,0.679c1,0.31,1.917,0.804,2.75,1.482
		c0.833,0.679,1.548,1.488,2.144,2.429c0.595,0.941,1.059,1.978,1.393,3.108c0.333,1.131,0.5,2.304,0.5,3.519
		c0,1.405-0.214,2.702-0.643,3.894c-0.429,1.19-1.036,2.25-1.822,3.179s-1.745,1.709-2.875,2.34
		c-1.131,0.631-2.399,1.125-3.804,1.482c2.857,0.952,5.013,3.417,6.465,7.394L320.546,379.96z M291.898,357.635h12.074
		c1.69,0,3.144-0.125,4.358-0.375s2.208-0.655,2.982-1.215c0.774-0.559,1.34-1.291,1.697-2.196c0.357-0.905,0.536-2.001,0.536-3.286
		c0-4.645-2.917-6.966-8.752-6.966h-12.895V357.635z"/>
	<path fill="#B2B2B2" d="M369.133,379.96h-30.434v-40.828h29.505v4.822h-24.111v12.502h22.54v4.822h-22.54v13.823h25.04V379.96z"/>
	<path fill="#B2B2B2" d="M419.791,379.96h-5.572l-21.396-32.22v32.22h-5.108v-40.828h5.501l21.396,32.22v-32.22h5.18V379.96z"/>
	<path fill="#B2B2B2" d="M457.02,380.675c-2.882,0-5.496-0.495-7.841-1.482c-2.346-0.988-4.347-2.399-6.001-4.233
		c-1.655-1.833-2.93-4.054-3.822-6.662c-0.893-2.607-1.34-5.53-1.34-8.769s0.452-6.162,1.357-8.77s2.185-4.822,3.84-6.645
		c1.655-1.821,3.655-3.227,6.001-4.215c2.346-0.987,4.947-1.482,7.806-1.482c2.19,0,4.25,0.316,6.18,0.946
		c1.929,0.632,3.631,1.519,5.107,2.661c1.477,1.144,2.685,2.519,3.626,4.126c0.94,1.607,1.506,3.388,1.696,5.341h-5.572
		c-0.119-1.286-0.471-2.447-1.054-3.483c-0.584-1.035-1.357-1.923-2.321-2.661c-0.965-0.737-2.097-1.304-3.394-1.696
		c-1.299-0.394-2.71-0.59-4.233-0.59c-2.048,0-3.899,0.363-5.555,1.09s-3.066,1.786-4.232,3.179
		c-1.167,1.394-2.066,3.114-2.697,5.162s-0.946,4.394-0.946,7.037c0,2.643,0.31,4.988,0.929,7.036
		c0.619,2.049,1.506,3.775,2.661,5.18c1.155,1.405,2.554,2.471,4.197,3.197s3.488,1.089,5.536,1.089
		c3.191,0,5.775-0.773,7.752-2.321s3.096-3.786,3.357-6.716h5.572c-0.19,2.191-0.738,4.139-1.643,5.841
		c-0.905,1.702-2.084,3.132-3.536,4.286c-1.453,1.155-3.15,2.036-5.091,2.644C461.418,380.371,459.306,380.675,457.02,380.675z"/>
	<path fill="#B2B2B2" d="M522.537,379.96h-30.434v-40.828h29.505v4.822h-24.111v12.502h22.54v4.822h-22.54v13.823h25.04V379.96z"/>
	<path fill="#B2B2B2" d="M613.664,379.96h-27.433v-5.322c0-2.715,1.881-5.43,5.644-8.145c3.477-2.19,6.966-4.381,10.466-6.572
		c3.763-2.548,5.645-4.953,5.645-7.216c0-4.977-2.918-7.466-8.752-7.466c-4.096,0-6.811,1.572-8.145,4.716h-4.857
		c0.381-2.001,1.619-3.977,3.715-5.93c2.619-2.429,5.715-3.644,9.287-3.644c4.31,0,7.656,1.071,10.037,3.215
		c2.382,2.144,3.572,5.18,3.572,9.108c0,3.453-1.834,6.656-5.501,9.609c-0.477,0.381-3.882,2.571-10.216,6.572
		c-3.667,2.31-5.501,4.382-5.501,6.215h22.039V379.96z"/>
	<path fill="#B2B2B2" d="M662.573,360.171c0,5.382-1.549,10.025-4.644,13.931c-3.097,3.906-6.823,5.858-11.181,5.858
		c-4.358,0-8.085-1.952-11.181-5.858c-3.096-3.905-4.644-8.549-4.644-13.931s1.548-10.025,4.644-13.931s6.822-5.858,11.181-5.858
		c4.357,0,8.084,1.953,11.181,5.858C661.024,350.146,662.573,354.789,662.573,360.171z M657.715,360.171
		c0-4.119-1.013-7.608-3.036-10.466c-2.096-2.977-4.739-4.466-7.93-4.466c-3.191,0-5.835,1.489-7.93,4.466
		c-2.024,2.857-3.037,6.347-3.037,10.466c0,4.12,1.013,7.608,3.037,10.466c2.095,2.978,4.738,4.465,7.93,4.465
		c3.19,0,5.834-1.487,7.93-4.465C656.702,367.779,657.715,364.291,657.715,360.171z"/>
	<path fill="#B2B2B2" d="M711.482,360.171c0,5.382-1.549,10.025-4.644,13.931c-3.097,3.906-6.823,5.858-11.181,5.858
		c-4.358,0-8.085-1.952-11.181-5.858c-3.096-3.905-4.644-8.549-4.644-13.931s1.548-10.025,4.644-13.931s6.822-5.858,11.181-5.858
		c4.357,0,8.084,1.953,11.181,5.858C709.934,350.146,711.482,354.789,711.482,360.171z M706.624,360.171
		c0-4.119-1.013-7.608-3.036-10.466c-2.096-2.977-4.739-4.466-7.93-4.466c-3.191,0-5.835,1.489-7.93,4.466
		c-2.024,2.857-3.037,6.347-3.037,10.466c0,4.12,1.013,7.608,3.037,10.466c2.095,2.978,4.738,4.465,7.93,4.465
		c3.19,0,5.834-1.487,7.93-4.465C705.611,367.779,706.624,364.291,706.624,360.171z"/>
	<path fill="#B2B2B2" d="M757.354,360.171c0,5.906-1.482,10.681-4.447,14.324s-6.758,5.465-11.377,5.465
		c-3.811,0-7.204-1.583-10.181-4.751l3.251-3.215c1.785,2.072,4.095,3.107,6.93,3.107c7.31,0,10.966-4.977,10.966-14.931
		c0-0.619-0.036-1.19-0.107-1.715c-2.596,4.358-6.335,6.537-11.216,6.537c-3.953,0-7.085-1.298-9.395-3.894
		c-2.024-2.31-3.036-5.084-3.036-8.323c0-3.262,1.154-6.096,3.465-8.501c2.452-2.596,5.56-3.894,9.323-3.894
		c4.738,0,8.644,2.203,11.716,6.608C755.984,350.919,757.354,355.313,757.354,360.171z M751.496,353.705
		c-0.763-2.429-2.049-4.429-3.858-6.001c-1.881-1.643-3.917-2.465-6.107-2.465c-2.453,0-4.418,0.786-5.895,2.358
		c-1.357,1.429-2.036,3.143-2.036,5.144c0,1.905,0.702,3.584,2.107,5.036c1.524,1.572,3.453,2.357,5.787,2.357
		c2.048,0,4.006-0.577,5.876-1.732C749.239,357.248,750.614,355.683,751.496,353.705z"/>
</g>
</svg>
